# xmcd
#
# Track frame offsets: 
#        150
#        18551
#        30597
#        47975
#        63314
#        78182
#        96592
#        109866
#        126481
#        143854
#        162857
#        176333
#
# Disc length: 2709 seconds
#
# Revision: 9
# Processed by: cddbd v1.5.2PL0 Copyright (c) Steve Scherf et al.
# Submitted via: ExactAudioCopy v0.99pb4
#
DISCID=a20a930c
DTITLE=Joe Nichols - Man With A Memory
DYEAR=2002
DGENRE=Country
TTITLE0=The Impossible
TTITLE1=Joe's Place
TTITLE2=Brokenheartsville
TTITLE3=She Only Smokes When She Drinks
TTITLE4=Everything's A Thing
TTITLE5=That Would Be Her
TTITLE6=Cool To Be A Fool
TTITLE7=Can't Hold A Halo To You
TTITLE8=You Can't Break The Fall
TTITLE9=You Aint Heard Nothin' Yet
TTITLE10=Life Don't Have To Mean Nothin' At All
TTITLE11=Man With A Memory
EXTD=
EXTT0=
EXTT1=
EXTT2=
EXTT3=
EXTT4=
EXTT5=
EXTT6=
EXTT7=
EXTT8=
EXTT9=
EXTT10=
EXTT11=
PLAYORDER=
